<?xml version="1.0" encoding="UTF-8" standalone="no"?>
<svg width="33px" height="33px" viewBox="0 0 33 33" version="1.1" xmlns="https://www.w3.org/2000/svg" xmlns:xlink="http://www.w3.org/1999/xlink" xmlns:sketch="http://www.bohemiancoding.com/sketch/ns">
    <!-- Generator: sketchtool 3.5.2 (25235) - http://www.bohemiancoding.com/sketch -->
    <title>noun_275581_cc</title>
    <desc>Created with sketchtool.</desc>
    <defs></defs>
    <g id="MASTER" stroke="none" stroke-width="1" fill="none" fill-rule="evenodd" sketch:type="MSPage">
        <g id="Style-Guide---buttons" sketch:type="MSArtboardGroup" transform="translate(-649.000000, -134.000000)" fill="#FFFFFF">
            <g id="noun_275581_cc" sketch:type="MSLayerGroup" transform="translate(649.000000, 134.000000)">
                <g id="Group" sketch:type="MSShapeGroup">
                    <g id="Shape">
                        <path d="M16.5148163,8.35977551 C12.0456735,8.35977551 8.42308163,11.9827041 8.42308163,16.4515102 C8.42308163,20.9206531 12.0460102,24.5432449 16.5148163,24.5432449 C20.9836224,24.5432449 24.6068878,20.9203163 24.6068878,16.4515102 C24.6068878,11.9827041 20.9839592,8.35977551 16.5148163,8.35977551 L16.5148163,8.35977551 Z M16.5148163,23.1663367 C12.8124184,23.1663367 9.80032653,20.1542449 9.80032653,16.4518469 C9.80032653,12.749449 12.8124184,9.73735714 16.5148163,9.73735714 C20.2172143,9.73735714 23.2293061,12.749449 23.2293061,16.4518469 C23.2293061,20.1542449 20.2172143,23.1663367 16.5148163,23.1663367 L16.5148163,23.1663367 Z"></path>
                        <path d="M6.83032653,16.5 C6.83032653,16.1184796 6.52120408,15.8093571 6.13968367,15.8093571 L0.690642857,15.8093571 C0.309122449,15.8093571 0,16.1184796 0,16.5 C0,16.8815204 0.309122449,17.1906429 0.690642857,17.1906429 L6.13968367,17.1906429 C6.52120408,17.1909796 6.83032653,16.8815204 6.83032653,16.5 L6.83032653,16.5 Z"></path>
                        <path d="M32.3093571,15.8093571 L26.8603163,15.8093571 C26.4787959,15.8093571 26.1696735,16.1188163 26.1696735,16.5 C26.1696735,16.8815204 26.4787959,17.1906429 26.8603163,17.1906429 L32.3093571,17.1906429 C32.6908776,17.1909796 33,16.8815204 33,16.5 C33,16.1184796 32.6908776,15.8093571 32.3093571,15.8093571 L32.3093571,15.8093571 Z"></path>
                        <path d="M16.5,26.1696735 C16.1184796,26.1696735 15.8093571,26.4787959 15.8093571,26.8606531 L15.8093571,32.3096939 C15.8093571,32.6908776 16.1184796,33 16.5,33 C16.8815204,33 17.1906429,32.6908776 17.1906429,32.3093571 L17.1906429,26.8603163 C17.1909796,26.4787959 16.8815204,26.1696735 16.5,26.1696735 L16.5,26.1696735 Z"></path>
                        <path d="M16.5,6.83032653 C16.8815204,6.83032653 17.1906429,6.52120408 17.1906429,6.13968367 L17.1906429,0.690642857 C17.1909796,0.309122449 16.8815204,0 16.5,0 C16.1184796,0 15.8093571,0.309122449 15.8093571,0.690979592 L15.8093571,6.14002041 C15.8093571,6.52120408 16.1184796,6.83032653 16.5,6.83032653 L16.5,6.83032653 Z"></path>
                        <path d="M8.68573469,23.337398 L4.83281633,27.1903163 C4.56309184,27.4600408 4.56309184,27.8974592 4.83281633,28.1671837 C5.10254082,28.4369082 5.53995918,28.4369082 5.80968367,28.1671837 L9.66260204,24.3142653 C9.93232653,24.0445408 9.93232653,23.6071224 9.66260204,23.337398 C9.39287755,23.0676735 8.95545918,23.0676735 8.68573469,23.337398 L8.68573469,23.337398 Z"></path>
                        <path d="M24.3142653,9.66260204 L28.1671837,5.80968367 C28.4369082,5.53995918 28.4369082,5.10254082 28.1671837,4.83281633 C27.8974592,4.56309184 27.4600408,4.56309184 27.1903163,4.83281633 L23.337398,8.68573469 C23.0676735,8.95545918 23.0676735,9.39287755 23.337398,9.66260204 C23.6071224,9.93232653 24.0445408,9.93232653 24.3142653,9.66260204 L24.3142653,9.66260204 Z"></path>
                        <path d="M24.3142653,23.337398 C24.0445408,23.0676735 23.6071224,23.0676735 23.337398,23.337398 C23.0676735,23.6071224 23.0676735,24.0445408 23.337398,24.3142653 L27.1903163,28.1671837 C27.4600408,28.4369082 27.8974592,28.4369082 28.1671837,28.1671837 C28.4369082,27.8974592 28.4369082,27.4600408 28.1671837,27.1903163 L24.3142653,23.337398 L24.3142653,23.337398 Z"></path>
                        <path d="M8.68573469,9.66260204 C8.95545918,9.93232653 9.39287755,9.93232653 9.66260204,9.66260204 C9.93232653,9.39287755 9.93232653,8.95545918 9.66260204,8.68573469 L5.80968367,4.83281633 C5.53995918,4.56309184 5.10254082,4.56309184 4.83281633,4.83281633 C4.56309184,5.10254082 4.56309184,5.53995918 4.83281633,5.80968367 L8.68573469,9.66260204 L8.68573469,9.66260204 Z"></path>
                    </g>
                </g>
            </g>
        </g>
    </g>
</svg>